<svg width="1197" height="1197" viewBox="0 0 1197 1197" fill="none" xmlns="http://www.w3.org/2000/svg">
<rect width="1197" height="1197" fill="url(#paint0_linear)"/>
<rect x="298" y="297" width="602" height="602" rx="25" stroke="white" stroke-width="30"/>
<rect x="827" y="522" width="145" height="145" rx="25" stroke="white" stroke-width="30"/>
<path d="M678.8 652.6C678.8 665.4 675.6 677.667 669.2 689.4C662.8 700.867 653.333 710.467 640.8 718.2C628.533 725.933 613.733 730.333 596.4 731.4V763.8H574.8V731.4C550.533 729.267 530.8 721.533 515.6 708.2C500.4 694.6 492.667 677.4 492.4 656.6H531.2C532.267 667.8 536.4 677.533 543.6 685.8C551.067 694.067 561.467 699.267 574.8 701.4V601.4C556.933 596.867 542.533 592.2 531.6 587.4C520.667 582.6 511.333 575.133 503.6 565C495.867 554.867 492 541.267 492 524.2C492 502.6 499.467 484.733 514.4 470.6C529.6 456.467 549.733 448.6 574.8 447V413.8H596.4V447C619.067 448.867 637.333 456.2 651.2 469C665.067 481.533 673.067 497.933 675.2 518.2H636.4C635.067 508.867 630.933 500.467 624 493C617.067 485.267 607.867 480.2 596.4 477.8V575.4C614 579.933 628.267 584.6 639.2 589.4C650.4 593.933 659.733 601.267 667.2 611.4C674.933 621.533 678.8 635.267 678.8 652.6ZM529.2 522.2C529.2 535.267 533.067 545.267 540.8 552.2C548.533 559.133 559.867 564.867 574.8 569.4V477C560.933 478.333 549.867 482.867 541.6 490.6C533.333 498.067 529.2 508.6 529.2 522.2ZM596.4 701.8C610.8 700.2 622 695 630 686.2C638.267 677.4 642.4 666.867 642.4 654.6C642.4 641.533 638.4 631.533 630.4 624.6C622.4 617.4 611.067 611.667 596.4 607.4V701.8Z" fill="white"/>
<defs>
<linearGradient id="paint0_linear" x1="1197" y1="627.5" x2="-10.5" y2="627.5" gradientUnits="userSpaceOnUse">
<stop stop-color="#8CE7AB"/>
<stop offset="1" stop-color="#5BC8AA"/>
</linearGradient>
</defs>
</svg>
